<svg xmlns="http://www.w3.org/2000/svg" viewBox="0 0 40 40" fill="none">
  <defs>
    <linearGradient id="g1" x1="0" y1="0" x2="40" y2="40" gradientUnits="userSpaceOnUse">
      <stop stop-color="#7c3aed"/>
      <stop offset="1" stop-color="#06b6d4"/>
    </linearGradient>
    <linearGradient id="g2" x1="0" y1="0" x2="40" y2="40" gradientUnits="userSpaceOnUse">
      <stop stop-color="#a855f7"/>
      <stop offset="1" stop-color="#22d3ee"/>
    </linearGradient>
  </defs>
  <!-- Background rounded square -->
  <rect width="40" height="40" rx="10" fill="url(#g1)"/>
  <!-- Brain outline left lobe -->
  <path d="M11 20c0-4 2.5-7 6-7.5V13c-1 0-2 .2-2.8.7C12.4 15 11 17.3 11 20c0 2.2.8 4.2 2.2 5.7L14.5 27H18v-1.5c-3.5-.5-6-2.9-6-5.5z" fill="rgba(255,255,255,0.5)"/>
  <!-- Brain outline right lobe -->
  <path d="M29 20c0 2.6-2.5 5-6 5.5V27h3.5l1.3-1.3C29.2 24.2 30 22.2 30 20c0-2.7-1.4-5-3.2-6.3-.8-.5-1.8-.7-2.8-.7v-.5c3.5.5 6 3.5 6 7.5z" fill="rgba(255,255,255,0.5)"/>
  <!-- Center brain divider -->
  <path d="M20 12.5v15" stroke="rgba(255,255,255,0.3)" stroke-width="1" stroke-linecap="round"/>
  <!-- Lightning bolt / spark -->
  <path d="M22 14l-5 8h5l-5 8" stroke="white" stroke-width="2.2" stroke-linecap="round" stroke-linejoin="round"/>
</svg>
